<svg width="100%" height="100%" viewBox="0 0 460 125" version="1.1" xmlns="http://www.w3.org/2000/svg" xmlns:xlink="http://www.w3.org/1999/xlink" xml:space="preserve" style="fill-rule:evenodd;clip-rule:evenodd;stroke-linejoin:round;stroke-miterlimit:1.41421;">
    <g transform="matrix(10.2606,0,0,10.2606,-709.652,-765.733)">
        <path d="M70.716,80.521L70.716,84.109L69.558,84.109L69.558,75.511L71.988,75.511C72.532,75.511 73.002,75.566 73.398,75.676C73.794,75.786 74.121,75.945 74.379,76.153C74.637,76.361 74.828,76.612 74.952,76.906C75.076,77.2 75.138,77.529 75.138,77.893C75.138,78.197 75.09,78.481 74.994,78.745C74.898,79.009 74.759,79.246 74.577,79.456C74.395,79.666 74.173,79.845 73.911,79.993C73.649,80.141 73.352,80.253 73.02,80.329C73.164,80.413 73.292,80.535 73.404,80.695L75.912,84.109L74.88,84.109C74.668,84.109 74.512,84.027 74.412,83.863L72.18,80.791C72.112,80.695 72.038,80.626 71.958,80.584C71.878,80.542 71.758,80.521 71.598,80.521L70.716,80.521ZM70.716,79.675L71.934,79.675C72.274,79.675 72.573,79.634 72.831,79.552C73.089,79.47 73.305,79.354 73.479,79.204C73.653,79.054 73.784,78.875 73.872,78.667C73.96,78.459 74.004,78.229 74.004,77.977C74.004,77.465 73.835,77.079 73.497,76.819C73.159,76.559 72.656,76.429 71.988,76.429L70.716,76.429L70.716,79.675Z" style="fill:black;fill-rule:nonzero;"/>
        <path d="M81.462,84.109L80.988,84.109C80.884,84.109 80.8,84.093 80.736,84.061C80.672,84.029 80.63,83.961 80.61,83.857L80.49,83.293C80.33,83.437 80.174,83.566 80.022,83.68C79.87,83.794 79.71,83.89 79.542,83.968C79.374,84.046 79.195,84.105 79.005,84.145C78.815,84.185 78.604,84.205 78.372,84.205C78.136,84.205 77.915,84.172 77.709,84.106C77.503,84.04 77.324,83.941 77.172,83.809C77.02,83.677 76.899,83.51 76.809,83.308C76.719,83.106 76.674,82.867 76.674,82.591C76.674,82.351 76.74,82.12 76.872,81.898C77.004,81.676 77.217,81.479 77.511,81.307C77.805,81.135 78.19,80.994 78.666,80.884C79.142,80.774 79.724,80.711 80.412,80.695L80.412,80.221C80.412,79.749 80.311,79.392 80.109,79.15C79.907,78.908 79.608,78.787 79.212,78.787C78.952,78.787 78.733,78.82 78.555,78.886C78.377,78.952 78.223,79.026 78.093,79.108C77.963,79.19 77.851,79.264 77.757,79.33C77.663,79.396 77.57,79.429 77.478,79.429C77.406,79.429 77.343,79.41 77.289,79.372C77.235,79.334 77.192,79.287 77.16,79.231L76.968,78.889C77.304,78.565 77.666,78.323 78.054,78.163C78.442,78.003 78.872,77.923 79.344,77.923C79.684,77.923 79.986,77.979 80.25,78.091C80.514,78.203 80.736,78.359 80.916,78.559C81.096,78.759 81.232,79.001 81.324,79.285C81.416,79.569 81.462,79.881 81.462,80.221L81.462,84.109ZM78.69,83.455C78.878,83.455 79.05,83.436 79.206,83.398C79.362,83.36 79.509,83.306 79.647,83.236C79.785,83.166 79.917,83.081 80.043,82.981C80.169,82.881 80.292,82.767 80.412,82.639L80.412,81.373C79.92,81.389 79.502,81.428 79.158,81.49C78.814,81.552 78.534,81.633 78.318,81.733C78.102,81.833 77.945,81.951 77.847,82.087C77.749,82.223 77.7,82.375 77.7,82.543C77.7,82.703 77.726,82.841 77.778,82.957C77.83,83.073 77.9,83.168 77.988,83.242C78.076,83.316 78.18,83.37 78.3,83.404C78.42,83.438 78.55,83.455 78.69,83.455Z" style="fill:black;fill-rule:nonzero;"/>
        <rect x="83.202" y="75.271" width="1.068" height="8.838" style="fill:black;fill-rule:nonzero;"/>
        <rect x="86.274" y="75.271" width="1.068" height="8.838" style="fill:black;fill-rule:nonzero;"/>
        <path d="M91.008,85.903C90.972,85.983 90.927,86.047 90.873,86.095C90.819,86.143 90.736,86.167 90.624,86.167L89.832,86.167L90.942,83.755L88.434,78.031L89.358,78.031C89.45,78.031 89.522,78.054 89.574,78.1C89.626,78.146 89.664,78.197 89.688,78.253L91.314,82.081C91.35,82.169 91.381,82.257 91.407,82.345C91.433,82.433 91.456,82.523 91.476,82.615C91.504,82.523 91.532,82.433 91.56,82.345C91.588,82.257 91.62,82.167 91.656,82.075L93.234,78.253C93.258,78.189 93.299,78.136 93.357,78.094C93.415,78.052 93.478,78.031 93.546,78.031L94.398,78.031L91.008,85.903Z" style="fill:black;fill-rule:nonzero;"/>
        <path d="M101.598,82.333C101.662,82.333 101.72,82.359 101.772,82.411L102.228,82.909C101.876,83.317 101.449,83.635 100.947,83.863C100.445,84.091 99.84,84.205 99.132,84.205C98.512,84.205 97.95,84.098 97.446,83.884C96.942,83.67 96.512,83.37 96.156,82.984C95.8,82.598 95.524,82.135 95.328,81.595C95.132,81.055 95.034,80.461 95.034,79.813C95.034,79.165 95.139,78.571 95.349,78.031C95.559,77.491 95.854,77.027 96.234,76.639C96.614,76.251 97.069,75.95 97.599,75.736C98.129,75.522 98.714,75.415 99.354,75.415C99.986,75.415 100.531,75.513 100.989,75.709C101.447,75.905 101.854,76.171 102.21,76.507L101.832,77.041C101.804,77.081 101.772,77.114 101.736,77.14C101.7,77.166 101.648,77.179 101.58,77.179C101.528,77.179 101.473,77.16 101.415,77.122C101.357,77.084 101.288,77.037 101.208,76.981C101.128,76.925 101.034,76.865 100.926,76.801C100.818,76.737 100.69,76.677 100.542,76.621C100.394,76.565 100.222,76.518 100.026,76.48C99.83,76.442 99.604,76.423 99.348,76.423C98.888,76.423 98.467,76.502 98.085,76.66C97.703,76.818 97.374,77.043 97.098,77.335C96.822,77.627 96.607,77.983 96.453,78.403C96.299,78.823 96.222,79.293 96.222,79.813C96.222,80.349 96.299,80.827 96.453,81.247C96.607,81.667 96.817,82.022 97.083,82.312C97.349,82.602 97.664,82.823 98.028,82.975C98.392,83.127 98.784,83.203 99.204,83.203C99.46,83.203 99.69,83.188 99.894,83.158C100.098,83.128 100.287,83.081 100.461,83.017C100.635,82.953 100.797,82.872 100.947,82.774C101.097,82.676 101.248,82.559 101.4,82.423C101.468,82.363 101.534,82.333 101.598,82.333Z" style="fill:black;fill-rule:nonzero;"/>
        <path d="M103.59,84.109L103.59,78.031L104.202,78.031C104.318,78.031 104.398,78.053 104.442,78.097C104.486,78.141 104.516,78.217 104.532,78.325L104.604,79.273C104.812,78.849 105.069,78.518 105.375,78.28C105.681,78.042 106.04,77.923 106.452,77.923C106.62,77.923 106.772,77.942 106.908,77.98C107.044,78.018 107.17,78.071 107.286,78.139L107.148,78.937C107.12,79.037 107.058,79.087 106.962,79.087C106.906,79.087 106.82,79.068 106.704,79.03C106.588,78.992 106.426,78.973 106.218,78.973C105.846,78.973 105.535,79.081 105.285,79.297C105.035,79.513 104.826,79.827 104.658,80.239L104.658,84.109L103.59,84.109Z" style="fill:black;fill-rule:nonzero;"/>
        <path d="M110.208,85.903C110.172,85.983 110.127,86.047 110.073,86.095C110.019,86.143 109.936,86.167 109.824,86.167L109.032,86.167L109.3,85.587L110.142,83.755L107.634,78.031L108.558,78.031C108.65,78.031 108.722,78.054 108.774,78.1C108.826,78.146 108.864,78.197 108.888,78.253L110.514,82.081C110.55,82.169 110.581,82.257 110.607,82.345C110.633,82.433 110.656,82.523 110.676,82.615C110.704,82.523 110.732,82.433 110.76,82.345C110.788,82.257 110.82,82.167 110.856,82.075L112.434,78.253C112.458,78.189 112.499,78.136 112.557,78.094C112.615,78.052 112.678,78.031 112.746,78.031L113.598,78.031L110.208,85.903Z" style="fill:black;fill-rule:nonzero;"/>
        <g transform="matrix(0.100169,0,0,0.0693407,68.0332,78.4205)">
            <path d="M15.836,100C15.836,100.505 15.836,111.724 15.836,111.724L416.436,111.724L416.436,100C416.436,100 15.836,99.495 15.836,100Z" style="fill:black;"/>
        </g>
    </g>
</svg>
