<?xml version="1.0" encoding="UTF-8" standalone="no"?>
<!DOCTYPE svg PUBLIC "-//W3C//DTD SVG 1.1//EN" "http://www.w3.org/Graphics/SVG/1.1/DTD/svg11.dtd">
<svg width="100%" height="100%" viewBox="0 0 700 700" version="1.1" xmlns="http://www.w3.org/2000/svg" xmlns:xlink="http://www.w3.org/1999/xlink" xml:space="preserve" xmlns:serif="http://www.serif.com/" style="fill-rule:evenodd;clip-rule:evenodd;stroke-linejoin:round;stroke-miterlimit:2;">
    <g transform="matrix(43.6938,0,0,43.9149,-907.905,-3021.73)">
        <g>
            <path d="M21.076,71.859L24.628,71.859C25.468,71.859 26.092,72.075 26.5,72.507C26.908,72.939 27.112,73.547 27.112,74.331C27.112,74.883 26.974,75.349 26.698,75.729C26.422,76.109 26.032,76.375 25.528,76.527C25.664,76.623 25.772,76.729 25.852,76.845C25.932,76.961 26.016,77.127 26.104,77.343L27.076,79.587L25.732,79.587L24.784,77.427C24.688,77.211 24.576,77.061 24.448,76.977C24.32,76.893 24.116,76.851 23.836,76.851L22.384,76.851L22.384,79.587L21.076,79.587L21.076,71.859ZM24.28,75.795C25.296,75.795 25.804,75.307 25.804,74.331C25.804,73.363 25.336,72.879 24.4,72.879L22.384,72.879L22.384,75.795L24.28,75.795Z" style="fill-rule:nonzero;"/>
            <g transform="matrix(1,0,0,1,6.666,0.12)">
                <path d="M24.7,79.707C23.452,79.707 22.496,79.365 21.832,78.681C21.168,77.997 20.836,77.051 20.836,75.843C20.836,74.539 21.156,73.529 21.796,72.813C22.436,72.097 23.4,71.739 24.688,71.739C25.496,71.739 26.252,71.863 26.956,72.111L26.956,73.251C26.276,72.987 25.552,72.855 24.784,72.855C23.848,72.855 23.176,73.103 22.768,73.599C22.36,74.095 22.156,74.843 22.156,75.843C22.156,76.755 22.374,77.443 22.81,77.907C23.246,78.371 23.912,78.603 24.808,78.603C25.6,78.603 26.32,78.479 26.968,78.231L26.968,79.383C26.28,79.599 25.524,79.707 24.7,79.707Z" style="fill-rule:nonzero;"/>
            </g>
            <path d="M41.344,81.699C40.912,81.699 21.392,81.643 21.088,81.531L21.088,80.559C21.312,80.639 40.708,80.679 40.972,80.679C41.212,80.679 41.408,80.641 41.56,80.565C41.712,80.489 41.844,80.371 41.956,80.211C42.068,80.051 42.2,79.819 42.352,79.515L39.82,73.899L41.176,73.899L43,78.123L44.848,73.899L46.192,73.899L43.876,79.263C43.532,80.079 43.174,80.689 42.802,81.093C42.43,81.497 41.944,81.699 41.344,81.699Z" style="fill-rule:nonzero;"/>
        </g>
    </g>
</svg>
