<?xml version="1.0" encoding="UTF-8" standalone="no"?>
<!DOCTYPE svg PUBLIC "-//W3C//DTD SVG 1.1//EN" "http://www.w3.org/Graphics/SVG/1.1/DTD/svg11.dtd">
<svg width="100%" height="100%" viewBox="0 0 460 125" version="1.1" xmlns="http://www.w3.org/2000/svg" xmlns:xlink="http://www.w3.org/1999/xlink" xml:space="preserve" style="fill-rule:evenodd;clip-rule:evenodd;stroke-linejoin:round;stroke-miterlimit:1.41421;">
    <g transform="matrix(9.93051,0,0,9.98074,-201.791,-701.007)">
        <path d="M21.076,71.859L24.628,71.859C25.468,71.859 26.092,72.075 26.5,72.507C26.908,72.939 27.112,73.547 27.112,74.331C27.112,74.883 26.974,75.349 26.698,75.729C26.422,76.109 26.032,76.375 25.528,76.527C25.664,76.623 25.772,76.729 25.852,76.845C25.932,76.961 26.016,77.127 26.104,77.343L27.076,79.587L25.732,79.587L24.784,77.427C24.688,77.211 24.576,77.061 24.448,76.977C24.32,76.893 24.116,76.851 23.836,76.851L22.384,76.851L22.384,79.587L21.076,79.587L21.076,71.859ZM24.28,75.795C25.296,75.795 25.804,75.307 25.804,74.331C25.804,73.363 25.336,72.879 24.4,72.879L22.384,72.879L22.384,75.795L24.28,75.795Z" style="fill:black;fill-rule:nonzero;"/>
        <path d="M29.632,79.707C29.056,79.707 28.576,79.557 28.192,79.257C27.808,78.957 27.616,78.527 27.616,77.967C27.616,77.407 27.806,76.965 28.186,76.641C28.566,76.317 29.136,76.155 29.896,76.155L31.72,76.155L31.72,75.903C31.72,75.623 31.678,75.405 31.594,75.249C31.51,75.093 31.356,74.979 31.132,74.907C30.908,74.835 30.588,74.799 30.172,74.799C29.5,74.799 28.872,74.899 28.288,75.099L28.288,74.127C28.56,74.023 28.88,73.939 29.248,73.875C29.616,73.811 30.004,73.779 30.412,73.779C31.26,73.779 31.898,73.951 32.326,74.295C32.754,74.639 32.968,75.183 32.968,75.927L32.968,79.587L31.852,79.587L31.768,79.011C31.528,79.243 31.236,79.417 30.892,79.533C30.548,79.649 30.128,79.707 29.632,79.707ZM29.98,78.771C30.356,78.771 30.692,78.707 30.988,78.579C31.284,78.451 31.528,78.271 31.72,78.039L31.72,77.043L29.92,77.043C29.536,77.043 29.258,77.115 29.086,77.259C28.914,77.403 28.828,77.631 28.828,77.943C28.828,78.231 28.924,78.441 29.116,78.573C29.308,78.705 29.596,78.771 29.98,78.771Z" style="fill:black;fill-rule:nonzero;"/>
        <path d="M35.836,79.707C35.356,79.707 35,79.591 34.768,79.359C34.536,79.127 34.42,78.751 34.42,78.231L34.42,71.499L35.728,71.499L35.728,78.111C35.728,78.327 35.766,78.477 35.842,78.561C35.918,78.645 36.04,78.687 36.208,78.687C36.4,78.687 36.584,78.663 36.76,78.615L36.76,79.563C36.496,79.659 36.188,79.707 35.836,79.707Z" style="fill:black;fill-rule:nonzero;"/>
        <path d="M38.896,79.707C38.416,79.707 38.06,79.591 37.828,79.359C37.596,79.127 37.48,78.751 37.48,78.231L37.48,71.499L38.788,71.499L38.788,78.111C38.788,78.327 38.826,78.477 38.902,78.561C38.978,78.645 39.1,78.687 39.268,78.687C39.46,78.687 39.644,78.663 39.82,78.615L39.82,79.563C39.556,79.659 39.248,79.707 38.896,79.707Z" style="fill:black;fill-rule:nonzero;"/>
        <path d="M41.344,81.699C40.912,81.699 21.392,81.643 21.088,81.531L21.088,80.559C21.312,80.639 40.708,80.679 40.972,80.679C41.212,80.679 41.408,80.641 41.56,80.565C41.712,80.489 41.844,80.371 41.956,80.211C42.068,80.051 42.2,79.819 42.352,79.515L39.82,73.899L41.176,73.899L43,78.123L44.848,73.899L46.192,73.899L43.876,79.263C43.532,80.079 43.174,80.689 42.802,81.093C42.43,81.497 41.944,81.699 41.344,81.699Z" style="fill:black;fill-rule:nonzero;"/>
    </g>
    <g transform="matrix(9.93051,0,0,9.98074,74.7888,-701.007)">
        <path d="M24.7,79.707C23.452,79.707 22.496,79.365 21.832,78.681C21.168,77.997 20.836,77.051 20.836,75.843C20.836,74.539 21.156,73.529 21.796,72.813C22.436,72.097 23.4,71.739 24.688,71.739C25.496,71.739 26.252,71.863 26.956,72.111L26.956,73.251C26.276,72.987 25.552,72.855 24.784,72.855C23.848,72.855 23.176,73.103 22.768,73.599C22.36,74.095 22.156,74.843 22.156,75.843C22.156,76.755 22.374,77.443 22.81,77.907C23.246,78.371 23.912,78.603 24.808,78.603C25.6,78.603 26.32,78.479 26.968,78.231L26.968,79.383C26.28,79.599 25.524,79.707 24.7,79.707Z" style="fill:black;fill-rule:nonzero;"/>
        <path d="M27.94,73.899L29.14,73.899L29.212,74.559C29.484,74.383 29.808,74.223 30.184,74.079C30.56,73.935 30.932,73.835 31.3,73.779L31.3,74.775C30.956,74.839 30.584,74.937 30.184,75.069C29.784,75.201 29.472,75.339 29.248,75.483L29.248,79.587L27.94,79.587L27.94,73.899Z" style="fill:black;fill-rule:nonzero;"/>
        <path d="M32.968,81.699C32.536,81.699 21.151,81.643 20.847,81.531L20.847,80.559C21.071,80.639 32.332,80.679 32.596,80.679C32.836,80.679 33.032,80.641 33.184,80.565C33.336,80.489 33.468,80.371 33.58,80.211C33.692,80.051 33.824,79.819 33.976,79.515L31.444,73.899L32.8,73.899L34.624,78.123L36.472,73.899L37.816,73.899L35.5,79.263C35.156,80.079 34.798,80.689 34.426,81.093C34.054,81.497 33.568,81.699 32.968,81.699Z" style="fill:black;fill-rule:nonzero;"/>
    </g>
</svg>
